<svg xmlns="http://www.w3.org/2000/svg" viewBox="0 0 400 250" width="400" height="250">
  <defs>
    <linearGradient id="bg" x1="0" y1="0" x2="1" y2="1">
      <stop offset="0" stop-color="#2dd4bf"/>
      <stop offset="1" stop-color="#134e4a"/>
    </linearGradient>
  </defs>
  <rect width="400" height="250" fill="url(#bg)"/>
  <text x="24" y="40" font-family="'Microsoft JhengHei','PingFang TC','Heiti TC',sans-serif" font-size="15" fill="#ffffff" opacity="0.7">FunTech</text>
  <rect x="148" y="56" width="32" height="32" rx="5" fill="#ffffff"/>
  <text x="164" y="78" text-anchor="middle" font-family="'Microsoft JhengHei','PingFang TC','Heiti TC',sans-serif" font-size="18" font-weight="700" fill="#0f766e">1</text>
  <rect x="186" y="56" width="32" height="32" rx="5" fill="#ffffff"/>
  <text x="202" y="78" text-anchor="middle" font-family="'Microsoft JhengHei','PingFang TC','Heiti TC',sans-serif" font-size="18" font-weight="700" fill="#0f766e">2</text>
  <rect x="224" y="56" width="32" height="32" rx="5" fill="#ffffff"/>
  <text x="240" y="78" text-anchor="middle" font-family="'Microsoft JhengHei','PingFang TC','Heiti TC',sans-serif" font-size="18" font-weight="700" fill="#0f766e">3</text>
  <rect x="148" y="94" width="32" height="32" rx="5" fill="#ffffff"/>
  <text x="164" y="116" text-anchor="middle" font-family="'Microsoft JhengHei','PingFang TC','Heiti TC',sans-serif" font-size="18" font-weight="700" fill="#0f766e">4</text>
  <rect x="186" y="94" width="32" height="32" rx="5" fill="#ffffff"/>
  <text x="202" y="116" text-anchor="middle" font-family="'Microsoft JhengHei','PingFang TC','Heiti TC',sans-serif" font-size="18" font-weight="700" fill="#0f766e">5</text>
  <rect x="224" y="94" width="32" height="32" rx="5" fill="#ffffff"/>
  <text x="240" y="116" text-anchor="middle" font-family="'Microsoft JhengHei','PingFang TC','Heiti TC',sans-serif" font-size="18" font-weight="700" fill="#0f766e">6</text>
  <rect x="148" y="132" width="32" height="32" rx="5" fill="#ffffff"/>
  <text x="164" y="154" text-anchor="middle" font-family="'Microsoft JhengHei','PingFang TC','Heiti TC',sans-serif" font-size="18" font-weight="700" fill="#0f766e">7</text>
  <rect x="186" y="132" width="32" height="32" rx="5" fill="#ffffff"/>
  <text x="202" y="154" text-anchor="middle" font-family="'Microsoft JhengHei','PingFang TC','Heiti TC',sans-serif" font-size="18" font-weight="700" fill="#0f766e">8</text>
  <rect x="224" y="132" width="32" height="32" rx="5" fill="#0f766e"/>

  <text x="200" y="222" text-anchor="middle" font-family="'Microsoft JhengHei','PingFang TC','Heiti TC',sans-serif" font-size="36" font-weight="700" fill="#ffffff">滑動拼圖</text>
</svg>
